<svg xmlns="http://www.w3.org/2000/svg" width="1200" height="520" viewBox="0 0 1200 520" role="img" aria-labelledby="title desc">
  <title id="title">SupportFlow</title>
  <desc id="desc">Vista conceptual del panel de gestión de soporte técnico SupportFlow</desc>
  <defs>
    <linearGradient id="bg" x1="0" y1="0" x2="1" y2="1"><stop stop-color="#061428"/><stop offset="1" stop-color="#102c4d"/></linearGradient>
    <linearGradient id="brand" x1="0" y1="0" x2="1" y2="1"><stop stop-color="#2692ff"/><stop offset="1" stop-color="#095de7"/></linearGradient>
    <linearGradient id="area" x1="0" y1="0" x2="0" y2="1"><stop stop-color="#1680ff" stop-opacity=".28"/><stop offset="1" stop-color="#1680ff" stop-opacity="0"/></linearGradient>
    <filter id="shadow" x="-20%" y="-20%" width="140%" height="160%"><feDropShadow dx="0" dy="14" stdDeviation="18" flood-color="#000" flood-opacity=".22"/></filter>
  </defs>
  <rect width="1200" height="520" rx="28" fill="url(#bg)"/>
  <circle cx="1085" cy="82" r="180" fill="#1680ff" opacity=".08"/><circle cx="82" cy="480" r="180" fill="#35b8ff" opacity=".06"/>
  <g transform="translate(70 70)">
    <rect width="54" height="54" rx="16" fill="url(#brand)"/>
    <path d="M17 17h20a5 5 0 0 1 5 5v11a5 5 0 0 1-5 5H25l-7 5 2-5h-3a5 5 0 0 1-5-5V22a5 5 0 0 1 5-5Z" fill="none" stroke="#fff" stroke-width="3" stroke-linejoin="round"/>
    <text x="72" y="25" fill="#fff" font-family="Inter,Segoe UI,sans-serif" font-size="25" font-weight="750">SupportFlow</text>
    <text x="72" y="48" fill="#8eafd0" font-family="Inter,Segoe UI,sans-serif" font-size="10" font-weight="700" letter-spacing="2.2">SERVICE WORKSPACE</text>
    <text y="112" fill="#fff" font-family="Inter,Segoe UI,sans-serif" font-size="42" font-weight="750">Soporte inteligente.</text>
    <text y="160" fill="#fff" font-family="Inter,Segoe UI,sans-serif" font-size="42" font-weight="750">Equipos más eficientes.</text>
    <text y="202" fill="#9eb5cc" font-family="Inter,Segoe UI,sans-serif" font-size="16">Tickets, SLA, automatización y conocimiento en un único espacio.</text>
    <g transform="translate(0 244)" font-family="Inter,Segoe UI,sans-serif">
      <rect width="130" height="38" rx="19" fill="#1680ff"/><text x="65" y="24" text-anchor="middle" fill="#fff" font-size="12" font-weight="700">React + Laravel</text>
      <rect x="142" width="98" height="38" rx="19" fill="#ffffff" opacity=".08"/><text x="191" y="24" text-anchor="middle" fill="#c7d7e7" font-size="12" font-weight="650">PostgreSQL</text>
      <rect x="252" width="98" height="38" rx="19" fill="#ffffff" opacity=".08"/><text x="301" y="24" text-anchor="middle" fill="#c7d7e7" font-size="12" font-weight="650">Tiempo real</text>
    </g>
  </g>
  <g transform="translate(545 46)" filter="url(#shadow)">
    <rect width="590" height="430" rx="18" fill="#f7f9fc"/>
    <rect width="590" height="50" rx="18" fill="#fff"/><rect y="36" width="590" height="14" fill="#fff"/>
    <circle cx="24" cy="24" r="4" fill="#ff6b6b"/><circle cx="39" cy="24" r="4" fill="#ffcc57"/><circle cx="54" cy="24" r="4" fill="#4dd18b"/>
    <rect x="84" y="15" width="210" height="18" rx="9" fill="#edf1f7"/><rect x="512" y="12" width="58" height="25" rx="8" fill="#1680ff"/>
    <rect x="0" y="50" width="115" height="380" fill="#fff"/><rect x="15" y="78" width="85" height="24" rx="8" fill="#e9f3ff"/>
    <g fill="#cad4e1"><rect x="22" y="120" width="66" height="7" rx="3"/><rect x="22" y="150" width="72" height="7" rx="3"/><rect x="22" y="205" width="52" height="6" rx="3"/><rect x="22" y="234" width="62" height="7" rx="3"/><rect x="22" y="264" width="70" height="7" rx="3"/></g>
    <g transform="translate(142 78)" font-family="Inter,Segoe UI,sans-serif"><text fill="#122238" font-size="17" font-weight="750">Buenos días, Hugo</text><text y="20" fill="#8999aa" font-size="8">Así está funcionando tu equipo de soporte hoy.</text></g>
    <g transform="translate(142 124)" font-family="Inter,Segoe UI,sans-serif">
      <g><rect width="96" height="74" rx="10" fill="#fff" stroke="#e2e8f0"/><text x="12" y="33" fill="#122238" font-size="18" font-weight="750">128</text><text x="12" y="51" fill="#8a99a9" font-size="7">Tickets abiertos</text><text x="77" y="17" fill="#31b67a" font-size="7">↘ 8%</text></g>
      <g transform="translate(106)"><rect width="96" height="74" rx="10" fill="#fff" stroke="#e2e8f0"/><text x="12" y="33" fill="#122238" font-size="18" font-weight="750">42 min</text><text x="12" y="51" fill="#8a99a9" font-size="7">Primera respuesta</text><text x="72" y="17" fill="#31b67a" font-size="7">↘ 12%</text></g>
      <g transform="translate(212)"><rect width="96" height="74" rx="10" fill="#fff" stroke="#e2e8f0"/><text x="12" y="33" fill="#122238" font-size="18" font-weight="750">6,4 h</text><text x="12" y="51" fill="#8a99a9" font-size="7">Resolución media</text><text x="75" y="17" fill="#31b67a" font-size="7">↘ 5%</text></g>
      <g transform="translate(318)"><rect width="96" height="74" rx="10" fill="#fff" stroke="#e2e8f0"/><text x="12" y="33" fill="#122238" font-size="18" font-weight="750">94.2%</text><text x="12" y="51" fill="#8a99a9" font-size="7">Cumplimiento SLA</text><text x="71" y="17" fill="#31b67a" font-size="7">+2.4%</text></g>
    </g>
    <g transform="translate(142 216)"><rect width="268" height="176" rx="11" fill="#fff" stroke="#e2e8f0"/><text x="14" y="24" fill="#17263a" font-family="Inter,Segoe UI,sans-serif" font-size="11" font-weight="700">Volumen de tickets</text><path d="M16 139 C45 116, 64 120, 92 112 S134 58, 160 74 S203 111, 252 47 L252 150 L16 150Z" fill="url(#area)"/><path d="M16 139 C45 116, 64 120, 92 112 S134 58, 160 74 S203 111, 252 47" fill="none" stroke="#1680ff" stroke-width="3" stroke-linecap="round"/><path d="M16 148 C64 126, 96 115, 134 108 S185 89, 252 92" fill="none" stroke="#31b67a" stroke-width="2" stroke-linecap="round"/></g>
    <g transform="translate(423 216)" font-family="Inter,Segoe UI,sans-serif"><rect width="132" height="176" rx="11" fill="#fff" stroke="#e2e8f0"/><text x="13" y="24" fill="#17263a" font-size="11" font-weight="700">Carga del equipo</text><g fill="#25364b" font-size="8"><text x="34" y="56">Marta Ruiz</text><text x="34" y="88">Álex Gil</text><text x="34" y="120">Sara León</text><text x="34" y="152">Jon Pérez</text></g><g fill="#1680ff"><rect x="34" y="63" width="80" height="4" rx="2"/><rect x="34" y="95" width="62" height="4" rx="2"/><rect x="34" y="127" width="48" height="4" rx="2"/><rect x="34" y="159" width="36" height="4" rx="2"/></g><g fill="#1680ff"><circle cx="19" cy="53" r="8"/><circle cx="19" cy="85" r="8" fill="#8c4cf4"/><circle cx="19" cy="117" r="8" fill="#f59e0b"/><circle cx="19" cy="149" r="8" fill="#15b8a6"/></g></g>
  </g>
</svg>

